<svg width="84" height="88" viewBox="0 0 84 88" fill="none" xmlns="http://www.w3.org/2000/svg">
<path d="M55.7991 32.6274C49.1036 26.073 38.4799 26.073 31.817 32.6274C25.1866 39.2903 25.306 50.1311 31.893 56.794C38.4799 63.4569 49.2773 63.5328 55.9076 56.8699C56.0161 56.7614 56.4828 56.2623 57.3292 55.3616L49.3532 47.3097C48.5611 48.2863 48.0836 48.7855 48.0402 48.7855C45.783 51.0426 42.1369 51.0426 39.8798 48.7855C37.6226 46.5283 37.6226 42.8388 39.8038 40.625C41.985 38.4439 45.642 38.4439 47.9208 40.701C47.9208 40.701 55.0612 47.8414 69.2985 62.1547C63.4387 70.6515 53.6179 76.0231 43.0484 76.0231C25.5447 76.0231 11.3183 61.6772 11.3183 43.9565C11.3183 26.2358 25.5556 11.9116 43.0484 11.9116C53.2707 11.9116 62.6573 16.8383 68.4847 24.8902C67.5406 25.9753 65.1424 28.7317 61.2683 33.1591L69.1683 41.0591L82.2554 26.2358C75.4406 10.8156 60.1615 0.58252 43.005 0.58252C19.2725 0.58252 0 20.0395 0 43.9782C0 67.9169 19.2291 87.4173 43.005 87.4173C53.8024 87.4173 62.755 83.999 71.4906 76.5114C79.4231 69.74 83.1886 60.3208 83.1886 60.3208L55.7991 32.6274Z" fill="url(#paint0_linear_1_634)"/>
<defs>
<linearGradient id="paint0_linear_1_634" x1="87.5" y1="84.0825" x2="-17.5" y2="-18.4175" gradientUnits="userSpaceOnUse">
<stop stop-color="#DB24E2"/>
<stop offset="1" stop-color="#4B17F5"/>
</linearGradient>
</defs>
</svg>
