<svg width="48" height="48" viewBox="0 0 48 48" fill="none" xmlns="http://www.w3.org/2000/svg">
<g filter="url(#filter0_b_1_478)">
<rect width="48" height="48" rx="14" fill="url(#paint0_linear_1_478)" fill-opacity="0.2"/>
</g>
<path d="M23.984 32.11C23.192 32.11 22.488 31.9927 21.872 31.758C21.2707 31.5087 20.7647 31.0907 20.354 30.504C19.9433 29.9027 19.6353 29.0813 19.43 28.04C19.2247 26.9987 19.122 25.6787 19.122 24.08C19.122 22.4813 19.254 21.1393 19.518 20.054C19.7967 18.9687 20.2 18.096 20.728 17.436C21.2707 16.776 21.916 16.3067 22.664 16.028C23.4267 15.7347 24.292 15.588 25.26 15.588C25.9787 15.588 26.7047 15.6173 27.438 15.676C28.1713 15.7347 28.8313 15.8227 29.418 15.94V18.514H25.568C24.468 18.514 23.6613 18.8587 23.148 19.548C22.6347 20.2227 22.378 21.2273 22.378 22.562C22.73 22.4593 23.0893 22.386 23.456 22.342C23.8373 22.2833 24.2407 22.2467 24.666 22.232C25.106 22.2027 25.568 22.188 26.052 22.188C27.1227 22.188 27.9733 22.342 28.604 22.65C29.2493 22.9433 29.704 23.376 29.968 23.948C30.2467 24.5053 30.386 25.1653 30.386 25.928V28.26C30.386 29.184 30.21 29.9247 29.858 30.482C29.5207 31.0393 29.044 31.45 28.428 31.714C27.8267 31.978 27.1373 32.11 26.36 32.11H23.984ZM24.644 29.184H25.612C25.9347 29.184 26.206 29.1327 26.426 29.03C26.646 28.9273 26.8147 28.7587 26.932 28.524C27.064 28.2893 27.13 27.9887 27.13 27.622V26.544C27.13 26.1187 27.0567 25.796 26.91 25.576C26.778 25.3413 26.5653 25.18 26.272 25.092C25.9787 25.004 25.6047 24.96 25.15 24.96H22.378C22.378 25.796 22.422 26.4927 22.51 27.05C22.598 27.5927 22.7373 28.018 22.928 28.326C23.1187 28.634 23.3533 28.854 23.632 28.986C23.9107 29.118 24.248 29.184 24.644 29.184Z" fill="white"/>
<defs>
<filter id="filter0_b_1_478" x="-4" y="-4" width="56" height="56" filterUnits="userSpaceOnUse" color-interpolation-filters="sRGB">
<feFlood flood-opacity="0" result="BackgroundImageFix"/>
<feGaussianBlur in="BackgroundImage" stdDeviation="2"/>
<feComposite in2="SourceAlpha" operator="in" result="effect1_backgroundBlur_1_478"/>
<feBlend mode="normal" in="SourceGraphic" in2="effect1_backgroundBlur_1_478" result="shape"/>
</filter>
<linearGradient id="paint0_linear_1_478" x1="4" y1="7" x2="38" y2="42" gradientUnits="userSpaceOnUse">
<stop stop-color="#D8E3FF"/>
<stop offset="1" stop-color="#FFF5EE" stop-opacity="0.51"/>
<stop offset="1" stop-color="#DDE7FF" stop-opacity="0"/>
</linearGradient>
</defs>
</svg>
