<svg width="48" height="48" viewBox="0 0 48 48" fill="none" xmlns="http://www.w3.org/2000/svg">
<g filter="url(#filter0_b_1_492)">
<rect width="48" height="48" rx="14" fill="url(#paint0_linear_1_492)" fill-opacity="0.2"/>
</g>
<path d="M23.566 32.088C23.0087 32.088 22.466 32.0367 21.938 31.934C21.4247 31.8313 20.9627 31.6553 20.552 31.406C20.156 31.142 19.8407 30.7827 19.606 30.328C19.386 29.8587 19.276 29.2647 19.276 28.546V26.324C19.276 25.8987 19.3493 25.51 19.496 25.158C19.6427 24.7913 19.848 24.476 20.112 24.212C20.3907 23.948 20.7133 23.7793 21.08 23.706C20.6253 23.486 20.288 23.2293 20.068 22.936C19.8627 22.628 19.7307 22.298 19.672 21.946C19.628 21.594 19.606 21.2273 19.606 20.846V18.998C19.606 18.162 19.7747 17.4947 20.112 16.996C20.464 16.4973 20.9333 16.138 21.52 15.918C22.1067 15.698 22.7373 15.588 23.412 15.588H26.492C27.196 15.588 27.8267 15.698 28.384 15.918C28.9413 16.138 29.3887 16.4973 29.726 16.996C30.0633 17.4947 30.232 18.162 30.232 18.998V20.846C30.232 21.0367 30.21 21.264 30.166 21.528C30.122 21.792 30.0413 22.0633 29.924 22.342C29.8213 22.6207 29.6747 22.8553 29.484 23.046C29.2933 23.2367 29.0587 23.3687 28.78 23.442C29.2787 23.5447 29.6527 23.7647 29.902 24.102C30.1513 24.4247 30.32 24.784 30.408 25.18C30.496 25.576 30.54 25.9353 30.54 26.258V28.546C30.54 29.514 30.3567 30.2547 29.99 30.768C29.638 31.2667 29.1613 31.6113 28.56 31.802C27.9587 31.9927 27.284 32.088 26.536 32.088H23.566ZM24.138 29.338H25.766C26.3673 29.338 26.7707 29.2207 26.976 28.986C27.1813 28.7367 27.284 28.392 27.284 27.952V26.5C27.284 26.0307 27.1593 25.6787 26.91 25.444C26.6753 25.1947 26.294 25.07 25.766 25.07H24.116C23.9253 25.07 23.7347 25.0993 23.544 25.158C23.3533 25.2167 23.1847 25.3047 23.038 25.422C22.8913 25.5393 22.7667 25.6933 22.664 25.884C22.576 26.06 22.532 26.2653 22.532 26.5V27.952C22.532 28.4507 22.6713 28.81 22.95 29.03C23.2287 29.2353 23.6247 29.338 24.138 29.338ZM24.116 22.298H25.722C26.0887 22.298 26.36 22.232 26.536 22.1C26.7267 21.968 26.8587 21.792 26.932 21.572C27.0053 21.3373 27.042 21.0807 27.042 20.802V19.768C27.042 19.1813 26.9247 18.8 26.69 18.624C26.4553 18.448 26.1473 18.36 25.766 18.36H24.138C23.6687 18.36 23.324 18.4553 23.104 18.646C22.884 18.8367 22.774 19.2107 22.774 19.768V20.802C22.774 21.3593 22.8767 21.748 23.082 21.968C23.302 22.188 23.6467 22.298 24.116 22.298Z" fill="white"/>
<defs>
<filter id="filter0_b_1_492" x="-4" y="-4" width="56" height="56" filterUnits="userSpaceOnUse" color-interpolation-filters="sRGB">
<feFlood flood-opacity="0" result="BackgroundImageFix"/>
<feGaussianBlur in="BackgroundImage" stdDeviation="2"/>
<feComposite in2="SourceAlpha" operator="in" result="effect1_backgroundBlur_1_492"/>
<feBlend mode="normal" in="SourceGraphic" in2="effect1_backgroundBlur_1_492" result="shape"/>
</filter>
<linearGradient id="paint0_linear_1_492" x1="4" y1="7" x2="38" y2="42" gradientUnits="userSpaceOnUse">
<stop stop-color="#D8E3FF"/>
<stop offset="1" stop-color="#FFF5EE" stop-opacity="0.51"/>
<stop offset="1" stop-color="#DDE7FF" stop-opacity="0"/>
</linearGradient>
</defs>
</svg>
