<svg width="48" height="48" viewBox="0 0 48 48" fill="none" xmlns="http://www.w3.org/2000/svg">
<g filter="url(#filter0_b_1_534)">
<rect width="48" height="48" rx="14" fill="url(#paint0_linear_1_534)" fill-opacity="0.2"/>
</g>
<path d="M24.062 31.132C22.8887 31.132 21.7667 31.088 20.696 31C19.64 30.9267 18.6867 30.8167 17.836 30.67V28.052H22.83C23.4313 28.052 23.9227 28.008 24.304 27.92C24.6853 27.832 24.964 27.678 25.14 27.458C25.3307 27.238 25.426 26.93 25.426 26.534V25.852C25.426 25.456 25.3307 25.148 25.14 24.928C24.9493 24.6933 24.6927 24.5247 24.37 24.422C24.062 24.3047 23.7027 24.2387 23.292 24.224L19.288 24.07V21.562L23.16 21.342C23.82 21.3127 24.3333 21.1953 24.7 20.99C25.0667 20.7847 25.25 20.4327 25.25 19.934V19.384C25.25 18.7973 25.052 18.3647 24.656 18.086C24.2747 17.8073 23.6293 17.668 22.72 17.668H18.188V15.072C19.024 14.94 19.9333 14.8227 20.916 14.72C21.8987 14.6027 22.9327 14.5587 24.018 14.588C24.9713 14.6027 25.778 14.764 26.438 15.072C27.098 15.3653 27.5967 15.8127 27.934 16.414C28.286 17.0007 28.462 17.734 28.462 18.614V19.824C28.462 20.2347 28.4107 20.6087 28.308 20.946C28.22 21.2833 28.0807 21.5767 27.89 21.826C27.6993 22.0607 27.4793 22.266 27.23 22.442C26.9807 22.6033 26.7167 22.728 26.438 22.816C26.746 22.8893 27.032 23.0287 27.296 23.234C27.5747 23.4393 27.8167 23.6887 28.022 23.982C28.2273 24.2607 28.3887 24.598 28.506 24.994C28.638 25.39 28.704 25.8227 28.704 26.292V27.128C28.704 28.4333 28.2933 29.4307 27.472 30.12C26.6507 30.7947 25.514 31.132 24.062 31.132Z" fill="white"/>
<defs>
<filter id="filter0_b_1_534" x="-4" y="-4" width="56" height="56" filterUnits="userSpaceOnUse" color-interpolation-filters="sRGB">
<feFlood flood-opacity="0" result="BackgroundImageFix"/>
<feGaussianBlur in="BackgroundImage" stdDeviation="2"/>
<feComposite in2="SourceAlpha" operator="in" result="effect1_backgroundBlur_1_534"/>
<feBlend mode="normal" in="SourceGraphic" in2="effect1_backgroundBlur_1_534" result="shape"/>
</filter>
<linearGradient id="paint0_linear_1_534" x1="3" y1="12.5" x2="54" y2="51.5" gradientUnits="userSpaceOnUse">
<stop stop-color="#DA25E2"/>
<stop offset="1" stop-color="#5718F3"/>
<stop offset="1" stop-color="#FFF5EE"/>
</linearGradient>
</defs>
</svg>
